# xmcd
#
# Track frame offsets: 
#        150
#        13855
#        26342
#        39600
#        53095
#        64810
#        77440
#        86500
#        97542
#        108120
#        119580
#        132267
#        144937
#        157887
#        169107
#        181842
#        194297
#        209000
#        221982
#        233695
#        246985
#        260275
#        273770
#
# Disc length: 3750 seconds
#
# Revision: 0
# Processed by: cddbd v1.5.1PL0 Copyright (c) Steve Scherf et al.
# Submitted via: ExactAudioCopy v0.95a5
#
DISCID=310ea417
DTITLE=Eddie Taylor - Big Town Playboy
DYEAR=1997
DGENRE=Blues
TTITLE0=Eddie Taylor - Bad Boy
TTITLE1=Eddie Taylor - E.T. Blues
TTITLE2=Eddie Taylor - Ride 'Em On Down(Alternate Take)
TTITLE3=Eddie Taylor - Big Town Playboy
TTITLE4=Eddie Taylor - You Always Have A Home(Alternate Take)
TTITLE5=Eddie Taylor - Don't Knock At My Door
TTITLE6=Eddie Taylor - I'm Gonna Love You
TTITLE7=Eddie Taylor - Lookin' For Trouble
TTITLE8=Eddie Taylor - Find My Baby
TTITLE9=Eddie Taylor - Stroll Out West
TTITLE10=Eddie Taylor - I'm Sittng Here
TTITLE11=Eddie Taylor - Do You Want Me To Cry
TTITLE12=Eddie Taylor - Train Fare
TTITLE13=Eddie Taylor - Leave This Neighborhood
TTITLE14=Elmore James - Cry For Me Baby
TTITLE15=John Lee Hooker - Trouble Blues
TTITLE16=Floyd Jones - Schooldays On My Mind
TTITLE17=Jimmy Reed - You Upset My Mind
TTITLE18=Jimmy Reed - Baby, Don't Say That No More
TTITLE19=Jimmy Reed - I'm Going Upside Your Head
TTITLE20=Eddie Taylor - Ride 'Em On Down
TTITLE21=Eddie Taylor - You'll Always Have A Home
TTITLE22=Eddie Taylor - Somethin' For Nothin'
EXTD=
EXTT0=
EXTT1=
EXTT2=
EXTT3=
EXTT4=
EXTT5=
EXTT6=
EXTT7=
EXTT8=
EXTT9=
EXTT10=
EXTT11=
EXTT12=
EXTT13=
EXTT14=
EXTT15=
EXTT16=
EXTT17=
EXTT18=
EXTT19=
EXTT20=
EXTT21=
EXTT22=
PLAYORDER=
